{"title":"Brazilian Cute Babe Fucking DP on Outdoor Sofa(threesome).mp4.mp","uid":10749176,"size":124494454,"categoryP":"porn","categoryS":"other","magnet":"?xt=urn:btih:02689cf2e3657bfc02a9e6505e932fd80ef8193c&amp;dn=Brazilian+Cute+Babe+Fucking+DP+on+Outdoor+Sofa%28threesome%29.mp4.mp&amp;tr=udp%3A%2F%2Ftracker.openbittorrent.com%3A80&amp;tr=udp%3A%2F%2Fopen.demonii.com%3A1337&amp;tr=udp%3A%2F%2Ftracker.coppersurfer.tk%3A6969&amp;tr=udp%3A%2F%2Fexodus.desync.com%3A6969","seeders":0,"leechers":1,"uploader":"vpsr","files":1,"time":1407859548,"description":"Brazilian Cute Babe Fucking DP on Outdoor Sofa(threesome).mp4.mp4\n\n &lt;a href=&quot;\nhttp://s25.postimg.org/4twj285gf/image.jpg&quot; rel=&quot;nofollow&quot; target=&quot;_NEW&quot;&gt;\nhttp://s25.postimg.org/4twj285gf/image.jpg&lt;/a&gt;\n\n &lt;a href=&quot;\nhttp://s25.postimg.org/7ci82wr6n/Brazilian_Cute_Babe_Fucking_DP_on_Outdoor_Sofa_t.jpg&quot; rel=&quot;nofollow&quot; target=&quot;_NEW&quot;&gt;\nhttp://s25.postimg.org/7ci82wr6n/Brazilian_Cute_Babe_Fucking_DP_on_Outdoor_Sofa_t.jpg&lt;/a&gt;\n\n\nFILE INFO\n\nGeneral\nComplete name                            : Brazilian Cute Babe Fucking DP on Outdoor Sofa(threesome).mp4.mp4\nFormat                                   : MPEG-4\nFormat profile                           : Base Media\nCodec ID                                 : isom\nFile size                                : 119 MiB\nDuration                                 : 27mn 0s\nOverall bit rate                         : 615 Kbps\nEncoded date                             : UTC 1970-01-01 00:00:00\nTagged date                              : UTC 1970-01-01 00:00:00\nWriting application                      : Lavf53.5.0\n\nVideo\nID                                       : 1\nFormat                                   : AVC\nFormat/Info                              : Advanced Video Codec\nFormat profile                           : &lt;a class=&quot;__cf_email__&quot; href=&quot;/cdn-cgi/l/email-protection&quot; data-cfemail=&quot;c78faea0af878bf5e9f7&quot;&gt;[email&amp;#160;protected]&lt;/a&gt;&lt;script cf-hash='f9e31' type=&quot;text/javascript&quot;&gt;\n/* &lt;![CDATA[ */!function(){try{var t=&quot;currentScript&quot;in document?document.currentScript:function(){for(var t=document.getElementsByTagName(&quot;script&quot;),e=t.length;e--;)if(t[e].getAttribute(&quot;cf-hash&quot;))return t[e]}();if(t&amp;&amp;t.previousSibling){var e,r,n,i,c=t.previousSibling,a=c.getAttribute(&quot;data-cfemail&quot;);if(a){for(e=&quot;&quot;,r=parseInt(a.substr(0,2),16),n=2;a.length-n;n+=2)i=parseInt(a.substr(n,2),16)^r,e+=String.fromCharCode(i);e=document.createTextNode(e),c.parentNode.replaceChild(e,c)}}}catch(u){}}();/* ]]&gt; */&lt;/script&gt;\nFormat settings, CABAC                   : Yes\nFormat settings, ReFrames                : 4 frames\nCodec ID                                 : avc1\nCodec ID/Info                            : Advanced Video Coding\nDuration                                 : 27mn 0s\nBit rate                                 : 512 Kbps\nWidth                                    : 320 pixels\nHeight                                   : 240 pixels\nDisplay aspect ratio                     : 4:3\nFrame rate mode                          : Variable\nFrame rate                               : 29.970 fps\nMinimum frame rate                       : 1.665 fps\nMaximum frame rate                       : 29.970 fps\nColor space                              : YUV\nChroma subsampling                       : 4:2:0\nBit depth                                : 8 bits\nScan type                                : Progressive\nBits/(Pixel*Frame)                       : 0.222\nStream size                              : 98.9 MiB (83%)\nWriting library                          : x264 core 125\n\nAudio\nID                                       : 2\nFormat                                   : AAC\nFormat/Info                              : Advanced Audio Codec\nFormat profile                           : LC\nCodec ID                                 : 40\nDuration                                 : 26mn 59s\nBit rate mode                            : Constant\nBit rate                                 : 64.2 Kbps\nChannel(s)                               : 2 channels\nChannel positions                        : Front: L R\nSampling rate                            : 48.0 KHz\nCompression mode                         : Lossy\nStream size                              : 12.4 MiB (10%)\n\nOther #1\nID                                       : 65536\nType                                     : Hint\nFormat                                   : RTP\nCodec ID                                 : rtp \nDuration                                 : 27mn 0s\n\nOther #2\nID                                       : 65537\nType                                     : Hint\nFormat                                   : RTP\nCodec ID                                 : rtp \nDuration                                 : 26mn 59s\n\n","torrent":{"xt":"urn:btih:02689cf2e3657bfc02a9e6505e932fd80ef8193c","amp;dn":"Brazilian+Cute+Babe+Fucking+DP+on+Outdoor+Sofa%28threesome%29.mp4.mp","amp;tr":["udp%3A%2F%2Ftracker.openbittorrent.com%3A80","udp%3A%2F%2Fopen.demonii.com%3A1337","udp%3A%2F%2Ftracker.coppersurfer.tk%3A6969","udp%3A%2F%2Fexodus.desync.com%3A6969"],"infoHash":"02689cf2e3657bfc02a9e6505e932fd80ef8193c","infoHashBuffer":{"type":"Buffer","data":[2,104,156,242,227,101,123,252,2,169,230,80,94,147,47,216,14,248,25,60]},"announce":[],"urlList":[]}}